<?xml version="1.0" encoding="UTF-8"?>
<svg version="1.1" xmlns="http://www.w3.org/2000/svg" width="100" height="100">
<path d="M0 0 C4.63340166 0.99215882 8.42803566 3.60969144 12.39160156 6.11035156 C13.33793457 6.68922119 14.28426758 7.26809082 15.25927734 7.86450195 C18.27455296 9.71827729 21.27148902 11.59920111 24.26660156 13.48535156 C25.26884766 14.11006348 26.27109375 14.73477539 27.30371094 15.37841797 C53.72098411 31.84849922 53.72098411 31.84849922 55.45410156 37.04785156 C55.23221268 41.11581438 54.76431448 42.27667917 52.26660156 45.48535156 C49.2243465 47.82509442 45.97740537 49.79937431 42.70410156 51.79785156 C41.74987305 52.39235107 40.79564453 52.98685059 39.8125 53.59936523 C36.63751336 55.57287439 33.45231857 57.52921773 30.26660156 59.48535156 C28.48034189 60.58932522 26.69513704 61.69498988 24.91004944 62.80085754 C0.68563704 77.80549282 0.68563704 77.80549282 -5.73339844 76.48535156 C-8.61952234 74.26670366 -9.6331033 73.08476026 -10.24133301 69.44970703 C-10.24451538 68.2626416 -10.24769775 67.07557617 -10.25097656 65.85253906 C-10.26149048 64.86643646 -10.26149048 64.86643646 -10.2722168 63.8604126 C-10.28978275 61.69329239 -10.27818079 59.5274844 -10.26464844 57.36035156 C-10.2673438 55.85107168 -10.27122659 54.34179348 -10.27624512 52.83251953 C-10.2821382 49.67170657 -10.27358394 46.51134622 -10.25488281 43.35058594 C-10.23209263 39.30166599 -10.24521684 35.25380658 -10.26917267 31.20492554 C-10.28363622 28.08903023 -10.27902227 24.97338583 -10.2686615 21.85748291 C-10.26599571 20.36476516 -10.26925882 18.87202453 -10.27857971 17.3793335 C-10.28875539 15.29166453 -10.27323412 13.20570582 -10.25097656 11.11816406 C-10.24779419 9.93109863 -10.24461182 8.7440332 -10.24133301 7.52099609 C-9.26325286 1.67555097 -5.80495746 -0.31877708 0 0 Z " fill="#FFFFFF" transform="translate(27.7333984375,11.5146484375)"/>
</svg>
